<svg xmlns="http://www.w3.org/2000/svg" width="3404" height="2950" viewBox="0 0 3404 2950">
  <g fill="none" fill-rule="evenodd" transform="translate(197.153 196.539)">
    <path stroke="#84E29C" stroke-width="393.12" d="M369.846677,2.17528154 C35.8466775,82.1752815 -27.6533225,393.175282 9.34667747,580.675282 C46.3466775,768.175282 163.846677,804.675282 213.346677,1486.17528 C300.846677,2103.67528 613.346677,1770.67528 1772.84668,2022.17528 C2341.84668,2171.17528 2263.34668,2521.17528 2612.84668,2553.67528 C2826.34525,2583.74092 2971.84668,2373.67528 3001.84668,2255.67528 C3023.84668,2167.67528 3023.84668,1532.67528 2648.34668,1167.17528 C2305.84668,785.175282 1592.34668,955.675282 1176.84668,768.175282 C918.346677,623.675282 838.846677,-42.8247185 369.846677,2.17528154 Z" stroke-linejoin="round"/>
    <path stroke="#FFFFFF" stroke-width="373.36" d="M369.846677,2.17528154 C35.8466775,82.1752815 -27.6533225,393.175282 9.34667747,580.675282 C46.3466775,768.175282 163.846677,804.675282 213.346677,1486.17528 C300.846677,2103.67528 613.346677,1770.67528 1772.84668,2022.17528 C2341.84668,2171.17528 2263.34668,2521.17528 2612.84668,2553.67528 C2826.34525,2583.74092 2971.84668,2373.67528 3001.84668,2255.67528 C3023.84668,2167.67528 3023.84668,1532.67528 2648.34668,1167.17528 C2305.84668,785.175282 1592.34668,955.675282 1176.84668,768.175282 C918.346677,623.675282 838.846677,-42.8247185 369.846677,2.17528154 Z" stroke-linejoin="round"/>
    <path stroke="#313D46" stroke-width="312" d="M369.846677,2.17528154 C35.8466775,82.1752815 -27.6533225,393.175282 9.34667747,580.675282 C46.3466775,768.175282 163.846677,804.675282 213.346677,1486.17528 C300.846677,2103.67528 613.346677,1770.67528 1772.84668,2022.17528 C2341.84668,2171.17528 2263.34668,2521.17528 2612.84668,2553.67528 C2826.34525,2583.74092 2971.84668,2373.67528 3001.84668,2255.67528 C3023.84668,2167.67528 3023.84668,1532.67528 2648.34668,1167.17528 C2305.84668,785.175282 1592.34668,955.675282 1176.84668,768.175282 C918.346677,623.675282 838.846677,-42.8247185 369.846677,2.17528154 Z" stroke-linejoin="round"/>
    <path stroke="#FF9900" stroke-width="20.8" d="M369.846677,2.17528154 C35.8466775,82.1752815 -27.6533225,393.175282 9.34667747,580.675282 C46.3466775,768.175282 163.846677,804.675282 213.346677,1486.17528 C300.846677,2103.67528 613.346677,1770.67528 1772.84668,2022.17528 C2341.84668,2171.17528 2263.34668,2521.17528 2612.84668,2553.67528 C2826.34525,2583.74092 2971.84668,2373.67528 3001.84668,2255.67528 C3023.84668,2167.67528 3023.84668,1532.67528 2648.34668,1167.17528 C2305.84668,785.175282 1592.34668,955.675282 1176.84668,768.175282 C918.346677,623.675282 838.846677,-42.8247185 369.846677,2.17528154 Z" stroke-dasharray="62.4"/>
  </g>
</svg>
