<svg xmlns="http://www.w3.org/2000/svg" width="354" height="160" viewBox="0 0 354 160"><title>DeepRacer_VirtualRaces-China</title><g id="Layer_1" data-name="Layer 1"><line x1="10" y1="139" x2="197" y2="139" style="fill:none;stroke:#232f3e;stroke-miterlimit:10;stroke-width:2px"/><line x1="168" y1="121" x2="199" y2="121" style="fill:none;stroke:#232f3e;stroke-miterlimit:10;stroke-width:2px;stroke-dasharray:6,6"/><line x1="10" y1="121" x2="52" y2="121" style="fill:none;stroke:#232f3e;stroke-miterlimit:10;stroke-width:2px;stroke-dasharray:6,6"/><line x1="10" y1="99" x2="49" y2="99" style="fill:none;stroke:#232f3e;stroke-miterlimit:10;stroke-width:2px"/><line x1="166" y1="99" x2="195" y2="99" style="fill:none;stroke:#232f3e;stroke-miterlimit:10;stroke-width:2px"/><circle cx="143.5" cy="80.5" r="0.5" style="fill:none;stroke:#232f3e;stroke-linejoin:round;stroke-width:2px"/><line x1="99" y1="58" x2="82" y2="58" style="fill:none;stroke:#232f3e;stroke-miterlimit:10;stroke-width:2px"/><line x1="89" y1="66" x2="74" y2="66" style="fill:none;stroke:#232f3e;stroke-miterlimit:10;stroke-width:2px"/><line x1="83" y1="74" x2="57" y2="74" style="fill:none;stroke:#232f3e;stroke-miterlimit:10;stroke-width:2px"/><path d="M113.31,90.33a5,5,0,0,0-1.27-.58c-4.88-1.44-11.14,5.2-14,14.83s-1.17,18.6,3.72,20c3.09.91,6.84-2.24,8.74-4.4a27.69,27.69,0,0,0,5.23-10.42,29.61,29.61,0,0,0,1.13-12.55c.86,3.91,1,9.48-.18,17.38a5.53,5.53,0,0,0,5.45,6.38h26.23c3.91,0,6.7-2.79,5.88-6.62l-.14-2.91M150,59l-8.48-2.24C102.91,47.51,90,63,86,69.43l-3.88,6.88c-2,2.37-5.35,4.62-10.93,4.46-7.31.45-11,4.64-12.81,9.1a26,26,0,0,0-1.15,3.95l-.06.1a28.13,28.13,0,0,0-.51,7.1c1.83-1.57,3.5-3,5-4.24a31.87,31.87,0,0,0-3.57,7.71c-1.66,5.32-3.91,17.27,3.09,20,3.44,1.35,7.17-1.17,9.45-3.55A29,29,0,0,0,77,109.7c2.12-6.78,1.87-13.22-.28-17m45.16,8.51c1.19,4.22,1.9,8.11,2.46,9.75a1.86,1.86,0,0,1,0-.22V111h8.38l.41-1c1-1.85,5.06-3,5.06-3h9.7s2.65,1.74,1.87,3.16l-.34,1.84h5.73l2.1-5.11,1.5-4.16a49.11,49.11,0,0,0,2.5-10.38l2-15.74A16.22,16.22,0,0,0,160,64.46,14.08,14.08,0,0,0,149.29,59l-.14,0-7.09-.12a13.72,13.72,0,0,0-11.37,5.6m-59.38,34c-3.25-.34-7.07,3.48-8.78,8.93-1.47,4.7-.93,9.17,1.12,11.2m48-21.69c-3.37-.37-7.33,3.85-9.1,9.89-1.54,5.2-1,10.15,1.15,12.39M152.07,75,150.41,88.1a6.21,6.21,0,0,1-6,5.44h-.16a6.24,6.24,0,0,1-6.18-7l1.67-13.08A6.23,6.23,0,1,1,152.07,75Z" style="fill:none;stroke:#232f3e;stroke-linejoin:round;stroke-width:2px"/><path d="M149.19,123.38l-1.54,1.23s2,0,4.31,0c5.72,0,8.9-2.49,10.39-6,2.23-5.27.24-13.08-2.35-18.64" style="fill:none;stroke:#232f3e;stroke-linejoin:round;stroke-width:2px"/><path d="M116.88,84.17S106.14,67.62,90.4,94.63" style="fill:none;stroke:#232f3e;stroke-linejoin:round;stroke-width:2px"/><line x1="74" y1="117" x2="91" y2="117" style="fill:none;stroke:#232f3e;stroke-linejoin:round;stroke-width:2px"/><circle cx="144" cy="80" r="4" style="fill:none;stroke:#232f3e;stroke-linejoin:round;stroke-width:2px"/><line x1="167" y1="65.12" x2="206" y2="65.12" style="fill:none;stroke:#527fff;stroke-linejoin:round;stroke-width:2px"/><path d="M148.35,45.89a15.28,15.28,0,0,0-3.15,4.54" style="fill:none;stroke:#527fff;stroke-linejoin:round;stroke-width:2px"/><path d="M151.44,43.48a16.78,16.78,0,0,0-1.84,1.28" style="fill:none;stroke:#527fff;stroke-linejoin:round;stroke-width:2px"/><path d="M173.2,50a15.46,15.46,0,0,0-20.09-7.41" style="fill:none;stroke:#527fff;stroke-linejoin:round;stroke-width:2px"/><path d="M232,41c2-15-13-23-21.05-21.57-.87.16-1.75.07-2.61.18a17.13,17.13,0,0,0-31.54,9.28v.05C172,28,166,32,166,39" style="fill:none;stroke:#527fff;stroke-linejoin:round;stroke-width:2px"/><path d="M38,26.55,33.85,39H20.17l11.08,8.54L27,60.54l11-8.06,11.05,8.06-4.25-13L55.91,40H42.24Z" style="fill:#527fff;stroke:#527fff;stroke-miterlimit:10;fill-rule:evenodd"/><polygon points="61.66 27.22 63.08 30.42 63.79 27 67.27 26.64 64.24 24.9 64.97 21.49 62.38 23.83 59.36 22.08 60.79 25.27 58.19 27.59 61.66 27.22" style="fill:#527fff;stroke:#527fff;stroke-miterlimit:10;fill-rule:evenodd"/><polygon points="72.77 42.4 74.96 39.68 78.21 40.94 76.31 38.02 78.51 35.31 75.14 36.22 73.24 33.29 73.07 36.77 69.69 37.67 72.95 38.91 72.77 42.4" style="fill:#527fff;stroke:#527fff;stroke-miterlimit:10;fill-rule:evenodd"/><polygon points="79.19 53.7 75.71 53.87 74.48 50.6 73.56 53.97 70.08 54.12 73 56.03 72.06 59.4 74.78 57.21 77.7 59.14 76.46 55.87 79.19 53.7" style="fill:#527fff;stroke:#527fff;stroke-miterlimit:10;fill-rule:evenodd"/><polygon points="64.26 62.61 62.15 65.39 58.86 64.23 60.84 67.1 58.72 69.87 62.06 68.86 64.04 71.74 64.12 68.25 67.47 67.25 64.17 66.1 64.26 62.61" style="fill:#527fff;stroke:#527fff;stroke-miterlimit:10;fill-rule:evenodd"/><path d="M89.82,53.2c.12-1.22.18-2.45.18-3.7A37.5,37.5,0,1,0,52.5,87" style="fill:none;stroke:#527fff;stroke-miterlimit:10;stroke-width:2px;fill-rule:evenodd"/></g><g id="Layer_2" data-name="Layer 2"><line x1="326" y1="99" x2="326" y2="87" style="fill:none;stroke:#232f3e;stroke-linejoin:round;stroke-width:2px"/><line x1="209" y1="87" x2="209" y2="99" style="fill:none;stroke:#232f3e;stroke-linejoin:round;stroke-width:2px"/><line x1="312" y1="67" x2="312" y2="59" style="fill:none;stroke:#232f3e;stroke-linejoin:round;stroke-width:2px"/><line x1="224" y1="59" x2="224" y2="67" style="fill:none;stroke:#232f3e;stroke-linejoin:round;stroke-width:2px"/><path d="M237.4,98.63c0-4.22-3.8-8.43-10.2-8.43-6.12,0-10.2,3.35-10.2,8.43" style="fill:none;stroke:#527fff;stroke-linejoin:round;stroke-width:2px"/><path d="M264.6,98.63c0-4.22-3.8-8.43-10.2-8.43-6.12,0-10.2,3.35-10.2,8.43" style="fill:none;stroke:#527fff;stroke-linejoin:round;stroke-width:2px"/><path d="M206.62,102H330.38a4.62,4.62,0,0,1,4.62,4.62V150a0,0,0,0,1,0,0H202a0,0,0,0,1,0,0V106.62A4.62,4.62,0,0,1,206.62,102Z" style="fill:none;stroke:#232f3e;stroke-linejoin:round;stroke-width:2px"/><rect x="210" y="109" width="19" height="15" rx="2.56" style="fill:none;stroke:#527fff;stroke-linejoin:round;stroke-width:2px"/><rect x="236" y="109" width="19" height="15" rx="2.56" style="fill:none;stroke:#527fff;stroke-linejoin:round;stroke-width:2px"/><rect x="281" y="109" width="19" height="15" rx="2.56" style="fill:none;stroke:#527fff;stroke-linejoin:round;stroke-width:2px"/><rect x="307" y="109" width="19" height="15" rx="2.56" style="fill:none;stroke:#527fff;stroke-linejoin:round;stroke-width:2px"/><polyline points="275 149 275 131 261 131 261 149" style="fill:none;stroke:#232f3e;stroke-linejoin:round;stroke-width:2px"/><path d="M278,70h49.5a2.15,2.15,0,0,1,2.12,1.9c.74,3.61,3.58,6.85,7.84,8.83L346.2,84H189.8l6.27-2.59c4.67-1.93,7.81-5.32,8.6-9.15.24-1.12,1-2.26,2.13-2.26H254" style="fill:none;stroke:#232f3e;stroke-linejoin:round;stroke-width:2px"/><circle cx="266" cy="70" r="7" style="fill:none;stroke:#527fff;stroke-linejoin:round;stroke-width:2px"/><path d="M316,44c1.71,0,1.33.34,1.38.79.37,3.43,3.13,6.56,7.47,8.41l6.58,2.8H204.57l5.86-2.22c4.74-1.79,7.8-5.07,8.19-8.7A1.74,1.74,0,0,1,220,44Z" style="fill:none;stroke:#232f3e;stroke-linejoin:round;stroke-width:2px"/><path d="M290.1,98.63c0-4.22-3.8-8.43-10.2-8.43-6.12,0-10.2,3.35-10.2,8.43" style="fill:none;stroke:#527fff;stroke-linejoin:round;stroke-width:2px"/><path d="M317.3,98.63c0-4.22-3.8-8.43-10.2-8.43-6.12,0-10.2,3.35-10.2,8.43" style="fill:none;stroke:#527fff;stroke-linejoin:round;stroke-width:2px"/></g></svg>